<svg xmlns="http://www.w3.org/2000/svg" viewBox="0 0 512 512">
  <rect width="512" height="512" rx="96" fill="#107c63"/>
  <path fill="#ffffff" d="M154 132h204c23 0 42 19 42 42v164c0 23-19 42-42 42H154c-23 0-42-19-42-42V174c0-23 19-42 42-42Zm0 38c-2 0-4 2-4 4v164c0 2 2 4 4 4h204c2 0 4-2 4-4V174c0-2-2-4-4-4H154Zm52 44h100c10 0 18 8 18 18s-8 18-18 18H206c-10 0-18-8-18-18s8-18 18-18Zm0 66h58c10 0 18 8 18 18s-8 18-18 18h-58c-10 0-18-8-18-18s8-18 18-18Z"/>
  <path fill="#dff4ec" d="M342 230c0 40-32 72-72 72s-72-32-72-72 32-72 72-72 72 32 72 72Zm-95-25c0 7 6 13 13 13h20v24h-20c-7 0-13 6-13 13s6 13 13 13h20v18c0 7 6 13 13 13s13-6 13-13v-18h20c7 0 13-6 13-13s-6-13-13-13h-20v-24h20c7 0 13-6 13-13s-6-13-13-13h-20v-18c0-7-6-13-13-13s-13 6-13 13v18h-20c-7 0-13 6-13 13Z" opacity=".9"/>
</svg>
